<?xml version="1.0" encoding="UTF-8"?>
<svg version="1.1" xmlns="http://www.w3.org/2000/svg" width="108" height="92">
<path d="M0 0 C35.64 0 71.28 0 108 0 C108 30.36 108 60.72 108 92 C72.36 92 36.72 92 0 92 C0 61.64 0 31.28 0 0 Z " fill="#EEEEEE" transform="translate(0,0)"/>
<path d="M0 0 C1.67542976 0.28604898 3.34385343 0.61781233 5 1 C5.33 1.99 5.66 2.98 6 4 C7.38505737 4.03758423 7.38505737 4.03758423 8.7980957 4.07592773 C12.22546416 4.17109045 15.65266461 4.27032214 19.07983398 4.37231445 C20.56286015 4.4156133 22.04593454 4.45729199 23.52905273 4.49731445 C25.66144339 4.55513958 27.79359242 4.61879832 29.92578125 4.68359375 C31.20880127 4.72025146 32.49182129 4.75690918 33.8137207 4.79467773 C37 5 37 5 40 6 C40.66 5.67 41.32 5.34 42 5 C44.32273159 4.84479443 46.64959313 4.74980833 48.9765625 4.68359375 C50.00443375 4.6524221 50.00443375 4.6524221 51.05307007 4.62062073 C53.24361069 4.55519815 55.43427189 4.49627446 57.625 4.4375 C59.1093875 4.39430782 60.59376278 4.3506933 62.078125 4.30664062 C65.71862084 4.19952447 69.35925251 4.09823638 73 4 C73.66 2.68 74.32 1.36 75 0 C76.32 0 77.64 0 79 0 C79.09272514 7.62343616 79.16377754 15.24681377 79.20724869 22.87068558 C79.22811412 26.41090072 79.25641126 29.95072974 79.30175781 33.49072266 C79.35357738 37.56156091 79.37295369 41.63199427 79.390625 45.703125 C79.41127014 46.97303284 79.43191528 48.24294067 79.45318604 49.55133057 C79.45363922 51.32271393 79.45363922 51.32271393 79.45410156 53.12988281 C79.46298401 54.16912903 79.47186646 55.20837524 79.48101807 56.27911377 C78.87236382 59.72197605 77.7168019 60.8664177 75 63 C71.63448877 64.12183708 68.90939768 64.20800968 65.36328125 64.31640625 C64.06455078 64.35830078 62.76582031 64.40019531 61.42773438 64.44335938 C60.05599239 64.48316987 58.68424756 64.52288216 57.3125 64.5625 C55.92902355 64.60570835 54.54555973 64.64932339 53.16210938 64.69335938 C49.77484281 64.79958028 46.38750201 64.90162358 43 65 C42.34 66.32 41.68 67.64 41 69 C39.68 69 38.36 69 37 69 C36.67 67.35 36.34 65.7 36 64 C35.08710205 64.02618408 34.1742041 64.05236816 33.23364258 64.0793457 C29.83227656 64.16478542 26.43205742 64.22734999 23.0300293 64.2746582 C21.56044475 64.29973644 20.09098413 64.33380856 18.62182617 64.37719727 C16.50408319 64.43815499 14.38799424 64.46627316 12.26953125 64.48828125 C10.99698486 64.51446533 9.72443848 64.54064941 8.41333008 64.56762695 C4.1323385 63.85571039 2.72979107 62.27859446 0 59 C-0.33 58.67 -0.66 58.34 -1 58 C-1.09893778 56.22553991 -1.12799092 54.44713749 -1.12939453 52.66992188 C-1.13254669 51.53204224 -1.13569885 50.3941626 -1.13894653 49.22180176 C-1.1369223 47.98329468 -1.13489807 46.7447876 -1.1328125 45.46875 C-1.13376923 44.20736206 -1.13472595 42.94597412 -1.13571167 41.6463623 C-1.13639375 38.97302862 -1.13503529 36.29978563 -1.13037109 33.62646484 C-1.12467381 30.19293309 -1.12795301 26.7594795 -1.13394356 23.32595062 C-1.13841762 20.06104757 -1.13528883 16.79615407 -1.1328125 13.53125 C-1.13483673 12.29274292 -1.13686096 11.05423584 -1.13894653 9.77819824 C-1.13579437 8.6403186 -1.13264221 7.50243896 -1.12939453 6.33007812 C-1.12859894 5.32271606 -1.12780334 4.315354 -1.12698364 3.27746582 C-1 1 -1 1 0 0 Z " fill="#0C0C0C" transform="translate(17,12)"/>
<path d="M0 0 C1.2463623 0.01047363 2.49272461 0.02094727 3.77685547 0.03173828 C4.77143265 0.03598312 4.77143265 0.03598312 5.78610229 0.04031372 C7.9055988 0.05151643 10.02467401 0.07662027 12.14404297 0.10205078 C13.58023479 0.11208051 15.01643322 0.12120637 16.45263672 0.12939453 C19.97490925 0.15145578 23.496935 0.18598585 27.01904297 0.22705078 C27.04431242 6.90225419 27.06187565 13.57744535 27.07397461 20.25268555 C27.07901622 22.52547669 27.08584934 24.79826458 27.09448242 27.07104492 C27.10655558 30.33008629 27.11227284 33.58908495 27.11669922 36.84814453 C27.1218605 37.87105087 27.12702179 38.89395721 27.13233948 39.94786072 C27.13241501 40.88876053 27.13249054 41.82966034 27.13256836 42.79907227 C27.13478897 43.63180161 27.13700958 44.46453094 27.13929749 45.32249451 C27.01904297 47.22705078 27.01904297 47.22705078 26.01904297 48.22705078 C23.7275288 48.31496053 21.43331773 48.33399116 19.14013672 48.32470703 C18.11014305 48.32258461 18.11014305 48.32258461 17.05934143 48.32041931 C14.85836496 48.31480557 12.65748888 48.30225085 10.45654297 48.28955078 C8.96761214 48.28453755 7.47867973 48.27997433 5.98974609 48.27587891 C2.33281222 48.26483171 -1.32406262 48.24755791 -4.98095703 48.22705078 C-5.03155093 41.71259873 -5.06664559 35.1981971 -5.09082031 28.68359375 C-5.10089528 26.46612657 -5.11455563 24.24867273 -5.13183594 22.03125 C-5.15601866 18.84908767 -5.167425 15.66710054 -5.17626953 12.48486328 C-5.1865921 11.488992 -5.19691467 10.49312073 -5.20755005 9.46707153 C-5.20770111 8.54626801 -5.20785217 7.62546448 -5.20800781 6.67675781 C-5.21244904 5.86401398 -5.21689026 5.05127014 -5.22146606 4.21389771 C-4.79381672 0.6810833 -3.36383849 0.25621374 0 0 Z " fill="#EDEDED" transform="translate(63.98095703125,21.77294921875)"/>
<path d="M0 0 C4.25414623 -0.02465622 8.50825498 -0.04283899 12.76245117 -0.05493164 C14.21070073 -0.05997101 15.65894517 -0.06680253 17.10717773 -0.07543945 C19.18474588 -0.08752247 21.26224697 -0.09323211 23.33984375 -0.09765625 C24.59144287 -0.10289307 25.84304199 -0.10812988 27.13256836 -0.11352539 C30 0 30 0 31 1 C31.09304018 2.47354348 31.11746265 3.95150591 31.11352539 5.42797852 C31.11344986 6.36887833 31.11337433 7.30977814 31.11329651 8.27919006 C31.10813522 9.30209641 31.10297394 10.32500275 31.09765625 11.37890625 C31.0962413 12.42070541 31.09482635 13.46250458 31.09336853 14.53587341 C31.0877508 17.87811094 31.0751953 21.22028257 31.0625 24.5625 C31.05748728 26.82226466 31.05292398 29.08203037 31.04882812 31.34179688 C31.03777561 36.89455391 31.02102024 42.44727225 31 48 C26.74585377 48.02465622 22.49174502 48.04283899 18.23754883 48.05493164 C16.78929927 48.05997101 15.34105483 48.06680253 13.89282227 48.07543945 C11.81525412 48.08752247 9.73775303 48.09323211 7.66015625 48.09765625 C6.40855713 48.10289307 5.15695801 48.10812988 3.86743164 48.11352539 C1 48 1 48 0 47 C-0.09304018 45.52645652 -0.11746265 44.04849409 -0.11352539 42.57202148 C-0.11344986 41.63112167 -0.11337433 40.69022186 -0.11329651 39.72080994 C-0.10813522 38.69790359 -0.10297394 37.67499725 -0.09765625 36.62109375 C-0.0962413 35.57929459 -0.09482635 34.53749542 -0.09336853 33.46412659 C-0.0877508 30.12188906 -0.0751953 26.77971743 -0.0625 23.4375 C-0.05748728 21.17773534 -0.05292398 18.91796963 -0.04882812 16.65820312 C-0.03777561 11.10544609 -0.02102024 5.55272775 0 0 Z " fill="#EEEEEE" transform="translate(22,22)"/>
</svg>
